<svg viewBox="0 0 200 200" xmlns="http://www.w3.org/2000/svg" role="img" aria-label="Nodo, la mascota del curso, saludando">
  <ellipse cx="100" cy="186" rx="56" ry="9" fill="#000000" opacity="0.14"/>

  <line x1="100" y1="36" x2="100" y2="12" stroke="#4C5FD5" stroke-width="6" stroke-linecap="round"/>
  <circle cx="100" cy="10" r="9" fill="#FFC94A"/>
  <circle cx="100" cy="10" r="4" fill="#FFF3D6"/>

  <path d="M65 155 C25 145 20 108 22 92 C182 92 178 145 138 155 C126 176 110 182 100 182 C90 182 74 176 65 155 Z" fill="#5C6BC0"/>
  <path d="M100 34 C150 34 172 68 172 108 C172 118 170 128 165 137 C120 152 80 152 35 137 C30 128 28 118 28 108 C28 68 50 34 100 34 Z" fill="#5C6BC0"/>

  <ellipse cx="100" cy="118" rx="50" ry="44" fill="#7C8CF0"/>

  <path d="M35 108 C15 93 8 68 20 53" stroke="#5C6BC0" stroke-width="14" stroke-linecap="round" fill="none"/>
  <circle cx="20" cy="53" r="10" fill="#5C6BC0"/>

  <path d="M165 113 C180 123 182 143 172 156" stroke="#5C6BC0" stroke-width="14" stroke-linecap="round" fill="none"/>
  <circle cx="172" cy="156" r="10" fill="#5C6BC0"/>

  <circle cx="80" cy="103" r="16" fill="#ffffff"/>
  <circle cx="120" cy="103" r="16" fill="#ffffff"/>
  <circle cx="83" cy="106" r="7" fill="#1A237E"/>
  <circle cx="123" cy="106" r="7" fill="#1A237E"/>
  <circle cx="86" cy="102" r="2.2" fill="#ffffff"/>
  <circle cx="126" cy="102" r="2.2" fill="#ffffff"/>

  <ellipse cx="63" cy="122" rx="9" ry="6" fill="#FF9EB5" opacity="0.7"/>
  <ellipse cx="137" cy="122" rx="9" ry="6" fill="#FF9EB5" opacity="0.7"/>

  <path d="M85 130 Q100 143 115 130" stroke="#1A237E" stroke-width="4" stroke-linecap="round" fill="none"/>

  <circle cx="83" cy="148" r="4" fill="#ffffff" opacity="0.9"/>
  <circle cx="100" cy="156" r="4" fill="#ffffff" opacity="0.9"/>
  <circle cx="117" cy="148" r="4" fill="#ffffff" opacity="0.9"/>
  <line x1="83" y1="148" x2="100" y2="156" stroke="#ffffff" stroke-width="2" opacity="0.7"/>
  <line x1="100" y1="156" x2="117" y2="148" stroke="#ffffff" stroke-width="2" opacity="0.7"/>
</svg>
